<?xml version="1.0" standalone="no"?>
<!DOCTYPE svg PUBLIC "-//W3C//DTD SVG 20010904//EN"
 "http://www.w3.org/TR/2001/REC-SVG-20010904/DTD/svg10.dtd">
<svg version="1.0" xmlns="http://www.w3.org/2000/svg"
 width="700.000000pt" height="700.000000pt" viewBox="0 0 700.000000 700.000000"
 preserveAspectRatio="xMidYMid meet">
<metadata>
Created by potrace 1.11, written by Peter Selinger 2001-2013
</metadata>
<g transform="translate(0.000000,700.000000) scale(0.100000,-0.100000)"
fill="#000000" stroke="none">
<path d="M1642 6304 c0 -201 -2 -367 -4 -369 -1 -2 -34 -6 -71 -10 -140 -13
-269 -71 -360 -161 -83 -83 -151 -206 -163 -296 l-6 -43 -377 3 -378 2 1 -77
1 -78 373 -3 372 -2 0 -130 0 -130 -173 0 -173 0 0 -57 1 -58 -200 -5 -200 -5
-1 -77 0 -78 373 0 373 0 0 -132 0 -133 -172 0 -172 0 -1 -52 c0 -29 -4 -56
-9 -60 -4 -4 -94 -8 -199 -8 l-192 0 0 -80 0 -79 373 0 372 0 0 -131 0 -131
-166 1 c-102 0 -168 -3 -173 -10 -5 -5 -8 -31 -7 -57 1 -26 -3 -49 -8 -51 -6
-1 -95 -2 -198 -2 -124 1 -189 -2 -191 -9 -2 -6 -3 -42 -3 -80 l1 -70 373 0
372 1 0 -134 0 -134 -57 1 c-32 1 -110 1 -174 1 l-115 -1 1 -59 1 -58 -165 -1
c-91 0 -182 -1 -202 -1 l-37 -1 2 -77 2 -78 372 0 372 0 0 -135 0 -135 -172 0
-173 0 0 -55 0 -55 -200 -5 -200 -5 -1 -77 0 -78 373 0 373 0 0 -129 c0 -94
-3 -130 -12 -133 -7 -3 -84 -4 -170 -3 -136 1 -158 -1 -159 -15 -1 -8 -2 -35
-3 -59 l-1 -44 -190 0 c-105 0 -195 -2 -201 -4 -9 -3 -13 -122 -5 -153 0 -3
169 -4 375 -4 l374 1 7 -36 c8 -48 43 -137 72 -183 13 -21 23 -39 23 -42 0 -2
-87 -4 -192 -4 -106 0 -209 -1 -229 -1 l-35 -1 2 -72 c1 -40 2 -76 3 -79 1 -3
144 -6 319 -5 312 0 318 -1 379 -25 56 -22 62 -28 73 -64 26 -86 68 -155 142
-233 l40 -43 0 -224 c-1 -205 1 -225 16 -226 68 -5 135 -3 139 3 2 5 4 86 4
182 l1 174 42 -14 c23 -8 78 -18 122 -22 l79 -7 1 -365 c1 -201 2 -369 3 -373
0 -4 36 -7 78 -5 l78 3 0 210 0 210 50 2 c103 3 91 -18 91 161 l-1 157 123 3
122 3 0 -376 0 -375 80 0 80 0 0 214 0 214 58 0 c31 0 62 0 68 1 8 1 12 44 12
139 0 75 0 147 1 160 1 22 4 22 121 22 107 0 120 -2 121 -17 0 -10 1 -179 1
-376 l1 -358 80 3 79 3 1 210 2 210 65 0 65 1 3 162 2 162 124 0 123 0 1 -353
c0 -193 1 -362 1 -374 1 -22 5 -23 80 -23 l78 0 1 198 c0 108 1 204 1 213 1
13 12 16 54 14 87 -2 84 -8 83 170 l-1 155 122 0 c91 0 123 -3 124 -12 0 -7 1
-174 1 -370 l0 -358 32 -1 c17 0 50 -1 74 -2 23 -1 43 3 43 8 1 6 2 100 3 210
l1 200 65 2 c36 1 68 2 72 2 4 1 9 74 10 163 l3 163 118 1 117 1 0 -374 0
-373 25 -1 c14 0 39 -1 55 -1 17 0 41 1 55 1 l25 1 0 208 0 209 70 -1 c40 -1
71 3 71 9 1 6 3 75 4 155 1 80 3 150 4 155 1 8 203 13 231 6 3 0 5 -166 5
-367 0 -412 -7 -382 78 -378 23 2 51 3 62 3 20 1 20 8 20 373 l0 372 65 3
c250 12 466 189 535 438 l17 60 374 -3 c206 -1 374 1 375 5 1 11 1 114 0 136
-1 16 -26 17 -374 17 l-374 0 1 129 1 128 130 1 c72 0 147 1 168 1 l37 1 0 60
c0 55 2 60 23 61 12 0 101 2 197 3 96 2 180 3 185 4 6 1 10 35 10 77 0 60 -3
75 -15 76 -8 0 -177 1 -375 2 l-360 2 -1 127 -1 128 169 0 168 0 0 63 0 63
205 0 c130 -1 205 3 206 9 1 12 1 138 0 146 -1 3 -164 5 -363 4 -200 0 -368 1
-373 2 -12 4 -14 237 -2 249 4 4 78 8 165 8 l157 1 3 62 3 63 206 2 207 3 -1
58 c-1 31 -1 66 -2 77 -1 19 -9 20 -343 20 -189 -1 -357 0 -373 0 l-31 0 1
128 0 127 168 0 167 0 0 60 0 61 205 -1 c113 0 205 2 206 5 4 20 3 143 -1 149
-3 4 -171 7 -375 6 l-370 0 -1 120 c0 66 1 125 3 130 2 7 63 11 168 10 l165 0
0 63 0 63 183 -1 c100 0 193 -1 207 0 25 0 25 1 25 77 l-1 78 -344 2 c-190 1
-359 2 -375 2 l-31 1 2 123 c1 67 2 125 3 130 0 4 75 7 166 7 l165 0 0 60 0
60 207 2 207 3 -1 70 c-1 39 -2 73 -2 77 -1 4 -171 9 -378 10 -328 3 -378 5
-379 18 -2 46 -64 203 -85 216 -31 19 11 24 211 24 l220 0 0 80 0 80 -307 0
-308 0 -72 27 -72 28 -22 60 c-26 71 -72 145 -126 204 l-39 43 0 220 c1 121
-2 225 -5 230 -6 10 -27 11 -120 9 l-36 -1 1 -180 c1 -99 0 -180 -1 -180 -1 0
-28 7 -60 15 -50 13 -114 22 -173 24 -13 1 -15 47 -15 371 l0 370 -80 0 -80 0
0 -207 0 -208 -73 0 -72 0 0 -162 c0 -138 -2 -163 -15 -164 -8 0 -61 -1 -117
-1 l-103 -1 -3 372 -2 371 -80 0 -80 0 0 -210 0 -209 -66 0 c-37 1 -70 -4 -73
-10 -4 -6 -7 -78 -6 -161 l1 -150 -26 -1 c-24 -1 -140 -1 -190 0 l-25 1 1 370
0 371 -80 -3 -80 -3 -1 -205 c0 -175 -2 -205 -15 -206 -8 -1 -41 -2 -72 -3
l-58 -1 -2 -161 -3 -161 -118 -1 -117 -2 0 373 0 372 -80 0 -80 0 0 -210 0
-210 -72 0 -73 0 1 -160 0 -160 -40 -1 c-41 -1 -172 0 -191 0 -6 1 -10 131 -9
371 l1 371 -80 -3 -79 -3 -2 -205 -1 -205 -30 -2 c-16 0 -48 -2 -70 -2 l-41
-1 1 -160 1 -160 -30 -1 c-147 -4 -206 -3 -209 6 -2 6 -3 173 -2 373 l1 363
-81 -3 -80 -3 -1 -195 c-1 -230 -1 -221 -16 -219 -7 1 -39 1 -70 0 l-58 -1 0
-160 c0 -99 -4 -160 -10 -161 -5 0 -58 -1 -117 -1 l-108 -1 -2 364 c-1 200 -2
367 -3 372 0 4 -36 7 -79 7 l-79 0 0 -366z"/>
</g>
</svg>
